ModelForces
version=1
nRows=117
nColumns=3
inDegrees=no

This file contains the forces exerted on a model during a simulation.

A force is a generalized force, meaning that it can be either a force (N) or a torque (Nm).

Units are S.I. units (second, meters, Newtons, ...)
Angles are in degrees.

endheader
time	piston	spring
      0.00000000	     20.00000000	     23.73452123
      0.01000000	     20.00000000	     24.49589151
      0.06000000	     20.00000000	     50.34312807
      0.12394713	     20.00000000	    126.50539335
      0.18789426	     20.00000000	    222.30142730
      0.27272108	     20.00000000	    315.65586234
      0.35754790	     20.00000000	    314.60948269
      0.44237472	     20.00000000	    219.85748238
      0.52720154	     20.00000000	     95.58238561
      0.60951967	     20.00000000	     26.62066905
      0.67230827	     20.00000000	     38.09089790
      0.73509687	     20.00000000	    102.17464527
      0.79788547	     20.00000000	    194.48407543
      0.88291229	     20.00000000	    301.88322708
      0.96793910	     20.00000000	    323.83611015
      1.05296592	     20.00000000	    245.39560965
      1.13799274	     20.00000000	    119.92101596
      1.21581094	     20.00000000	     36.81089465
      1.29362914	     20.00000000	     33.78823065
      1.35729732	     20.00000000	     93.72448493
      1.42096549	     20.00000000	    185.96341526
      1.50612920	     20.00000000	    296.93244787
      1.59129291	     20.00000000	    325.57648129
      1.67645662	     20.00000000	    252.33757644
      1.76162033	     20.00000000	    127.18456061
      1.83877721	     20.00000000	     40.59810851
      1.91593409	     20.00000000	     30.69063412
      1.97820464	     20.00000000	     84.06093588
      2.04047519	     20.00000000	    171.99928111
      2.12622059	     20.00000000	    288.47579569
      2.21196598	     20.00000000	    327.41835274
      2.29771138	     20.00000000	    261.89977698
      2.38345678	     20.00000000	    137.19209422
      2.46021831	     20.00000000	     46.00944719
      2.53697984	     20.00000000	     27.75219938
      2.59739543	     20.00000000	     73.02793687
      2.65781102	     20.00000000	    154.80512388
      2.74487274	     20.00000000	    277.57450549
      2.83193446	     20.00000000	    328.32711286
      2.91899618	     20.00000000	    270.95648797
      3.00605790	     20.00000000	    146.24760830
      3.08322219	     20.00000000	     50.75157307
      3.16038648	     20.00000000	     26.24132766
      3.21966261	     20.00000000	     66.09073600
      3.27893874	     20.00000000	    143.48102539
      3.36882797	     20.00000000	    272.03150364
      3.45871720	     20.00000000	    328.34101991
      3.54860642	     20.00000000	    269.88565142
      3.63849565	     20.00000000	    140.77471336
      3.71603605	     20.00000000	     47.40562424
      3.79357645	     20.00000000	     27.57915247
      3.85386409	     20.00000000	     72.00776462
      3.91415173	     20.00000000	    153.14712288
      4.01284779	     20.00000000	    287.90229759
      4.09645553	     20.00000000	    320.85510040
      4.18006328	     20.00000000	    260.96850546
      4.26367103	     20.00000000	    150.89200727
      4.34660730	     20.00000000	     61.04597847
      4.42954357	     20.00000000	     41.97826284
      4.49447175	     20.00000000	     82.29070160
      4.55939992	     20.00000000	    154.14081444
      4.65328018	     20.00000000	    259.52343101
      4.74716043	     20.00000000	    302.97376971
      4.84104069	     20.00000000	    260.48337058
      4.93492095	     20.00000000	    166.11340021
      5.03189938	     20.00000000	     81.14892001
      5.12887782	     20.00000000	     61.62270490
      5.20305468	     20.00000000	     96.56087932
      5.27723154	     20.00000000	    158.50784532
      5.38364956	     20.00000000	    246.29657708
      5.49006758	     20.00000000	    280.03545356
      5.59648560	     20.00000000	    243.57371391
      5.70290362	     20.00000000	    167.67816549
      5.82251117	     20.00000000	     97.30537141
      5.94211872	     20.00000000	     87.71295032
      6.03681673	     20.00000000	    123.07846858
      6.13151474	     20.00000000	    176.24844651
      6.26149591	     20.00000000	    235.90931025
      6.39147709	     20.00000000	    247.15572275
      6.52145827	     20.00000000	    211.93316068
      6.65143944	     20.00000000	    159.83039227
      6.82886725	     20.00000000	    115.16983960
      6.96040560	     20.00000000	    115.98872722
      7.04458742	     20.00000000	    133.71446375
      7.12876923	     20.00000000	    163.26411323
      7.32272193	     20.00000000	    230.75192145
      7.51667463	     20.00000000	    250.89911128
      7.69052443	     20.00000000	    213.07499533
      7.86437423	     20.00000000	    149.10270404
      8.03177176	     20.00000000	    105.19603366
      8.19916929	     20.00000000	    108.06237568
      8.34529479	     20.00000000	    148.15334825
      8.49142029	     20.00000000	    202.54583926
      8.69237832	     20.00000000	    250.59762183
      8.86001546	     20.00000000	    237.97270730
      9.02765260	     20.00000000	    184.44228584
      9.23420046	     20.00000000	    115.51254020
      9.44074833	     20.00000000	    105.61044723
      9.58162587	     20.00000000	    140.69129573
      9.72250342	     20.00000000	    192.65420830
      9.91172366	     20.00000000	    245.97998564
      9.99017588	     20.00000000	    252.18099755
     10.01666593	     20.00000000	    267.57978880
     10.04315598	     20.00000000	    290.42079759
     10.17560625	     20.00000000	    338.46422390
     10.31412804	     20.00000000	    189.79646109
     10.39390787	     20.00000000	     28.08230456
     10.47368769	     20.00000000	   -113.94654308
     10.51610380	     20.00000000	   -150.83225376
     10.55299657	     20.00000000	   -148.98598925
     10.58988934	     20.00000000	   -110.81609497
     10.62678210	     20.00000000	    -36.08161308
     10.69422291	     20.00000000	    175.48717052
     10.76166372	     20.00000000	    416.37244008
     10.85087266	     20.00000000	    594.43089989
     10.91811406	     20.00000000	    511.81903850
     10.98535546	     20.00000000	    244.27228036
